<svg id="Layer_2" style="fill:#1DA1F2" height="512" viewBox="0 0 24 24" width="512" xmlns="http://www.w3.org/2000/svg"><g><path style="fill:#1DA1F2" d="m8.5 19h-6c-1.379 0-2.5-1.122-2.5-2.5v-12c0-1.378 1.121-2.5 2.5-2.5h15c1.379 0 2.5 1.122 2.5 2.5v4c0 .277-.224.5-.5.5s-.5-.223-.5-.5v-4c0-.827-.673-1.5-1.5-1.5h-15c-.827 0-1.5.673-1.5 1.5v12c0 .827.673 1.5 1.5 1.5h6c.276 0 .5.224.5.5s-.224.5-.5.5z"/></g><g><path style="fill:#1DA1F2" d="m19.5 7h-19c-.276 0-.5-.224-.5-.5s.224-.5.5-.5h19c.276 0 .5.224.5.5s-.224.5-.5.5z"/></g><g><path d="m4.5 5c-.276 0-.5-.224-.5-.5v-4c0-.276.224-.5.5-.5s.5.224.5.5v4c0 .276-.224.5-.5.5z"/></g><g><path style="fill:#1DA1F2" d="m15.5 5c-.276 0-.5-.224-.5-.5v-4c0-.276.224-.5.5-.5s.5.224.5.5v4c0 .276-.224.5-.5.5z"/></g><g><path style="fill:#1DA1F2" d="m16.5 20c-.133 0-.26-.053-.354-.146l-2-2c-.195-.195-.195-.512 0-.707s.512-.195.707 0l1.622 1.622 3.148-3.598c.182-.209.498-.229.705-.047.208.182.229.498.047.706l-3.5 4c-.091.104-.221.166-.359.17-.005 0-.01 0-.016 0z"/></g><g><path style="fill:#1DA1F2" d="m17.5 24c-3.584 0-6.5-2.916-6.5-6.5s2.916-6.5 6.5-6.5 6.5 2.916 6.5 6.5-2.916 6.5-6.5 6.5zm0-12c-3.032 0-5.5 2.467-5.5 5.5s2.468 5.5 5.5 5.5 5.5-2.467 5.5-5.5-2.468-5.5-5.5-5.5z"/></g></svg>